nColumns=19
nRows=52
DataType=double
version=3
OpenSimVersion=4.1
endheader
time	ground_force_calcn_r_vx	ground_force_calcn_r_vy	ground_force_calcn_r_vz	ground_force_calcn_r_px	ground_force_calcn_r_py	ground_force_calcn_r_pz	ground_force_calcn_r_mx	ground_force_calcn_r_my	ground_force_calcn_r_mz	ground_force_calcn_l_vx	ground_force_calcn_l_vy	ground_force_calcn_l_vz	ground_force_calcn_l_px	ground_force_calcn_l_py	ground_force_calcn_l_pz	ground_force_calcn_l_mx	ground_force_calcn_l_my	ground_force_calcn_l_mz
1.41	-11.8203	54.0097	-0.428949	-0.250294	-0	-0.176946	-0.882343	4.03163	-0.0320195	0	0	0	0	-0	0	0	0	0
1.42	-15.7581	96.4039	-1.19802	0.713586	-0	-0.262609	-0.45561	2.78729	-0.0346379	0	0	0	0	-0	0	0	0	0
1.43	-5.51974	206.144	2.18808	0.764771	-0	-0.267642	-0.0158359	0.59142	0.00627752	0	0	0	0	-0	0	0	0	0
1.44	13.382	392.367	11.9731	0.771501	-0	-0.269586	-0.0258658	-0.758398	-0.0231426	0	0	0	0	-0	0	0	0	0
1.45	16.0661	600.616	21.9803	0.771695	-0	-0.269807	-0.0335741	-1.25514	-0.0459332	0	0	0	0	-0	0	0	0	0
1.46	-10.899	754.636	20.9537	0.770318	-0	-0.269362	0.0228546	-1.58243	-0.0439387	0	0	0	0	-0	0	0	0	0
1.47	-51.6042	837.929	8.17978	0.767241	-0	-0.268504	0.114674	-1.86204	-0.018177	0	0	0	0	-0	0	0	0	0
1.48	-82.6093	898.124	-9.4455	0.761117	-0	-0.267265	0.164679	-1.79038	0.0188293	0	0	0	0	-0	0	0	0	0
1.49	-94.13	976.737	-23.4573	0.751554	-0	-0.265749	0.118381	-1.22838	0.0295007	0	0	0	0	-0	0	0	0	0
1.5	-93.6564	1074.41	-30.7982	0.73987	-0	-0.264145	0.0323732	-0.37138	0.0106457	0	0	0	0	-0	0	0	0	0
1.51	-87.9988	1170.45	-37.1678	0.727764	-0	-0.262662	-0.0353478	0.470151	-0.0149298	0	0	0	0	-0	0	0	0	0
1.52	-79.0743	1250.78	-45.2535	0.715965	-0	-0.261332	-0.0705522	1.11598	-0.0403764	0	0	0	0	-0	0	0	0	0
1.53	-69.4408	1312.37	-52.1401	0.704304	-0	-0.260079	-0.082055	1.55076	-0.0616116	0	0	0	0	-0	0	0	0	0
1.54	-60.0424	1353.87	-57.8571	0.692412	-0	-0.258866	-0.0798649	1.80084	-0.0769581	0	0	0	0	-0	0	0	0	0
1.55	-49.7425	1371.86	-61.9497	0.680094	-0	-0.257709	-0.0664554	1.83279	-0.082764	0	0	0	0	-0	0	0	0	0
1.56	-37.8104	1365.17	-62.7031	0.667393	-0	-0.256622	-0.0434561	1.56901	-0.0720656	0	0	0	0	-0	0	0	0	0
1.57	-24.7878	1336.68	-61.096	0.654514	-0	-0.255618	-0.0182393	0.983554	-0.0449555	0	0	0	0	-0	0	0	0	0
1.58	-11.0464	1288.85	-58.7736	0.641621	-0	-0.254727	-0.00144133	0.168168	-0.00766874	0	0	0	0	-0	0	0	0	0
1.59	3.52294	1224.4	-55.1642	0.628641	-0	-0.254017	-0.0020304	-0.705665	0.0317932	0	0	0	0	-0	0	0	0	0
1.6	19.191	1148.08	-48.5687	0.615271	-0	-0.253582	-0.0249649	-1.4935	0.0631816	0	0	0	0	-0	0	0	0	0
1.61	35.9427	1064.25	-38.8289	0.601186	-0	-0.253516	-0.0727814	-2.15503	0.0786257	0	0	0	0	-0	0	0	0	0
1.62	53.0227	975.171	-27.2491	0.58627	-0	-0.253867	-0.148958	-2.73957	0.0765515	0	0	0	0	-0	0	0	0	0
1.63	67.902	882.555	-16.3094	0.570731	-0	-0.254585	-0.25361	-3.29629	0.0609144	0	0	0	0	-0	0	0	0	0
1.64	78.4415	788.214	-7.97456	0.554977	-0	-0.255503	-0.376158	-3.7798	0.0382412	0	0	0	0	-0	0	0	0	0
1.65	84.7864	693.728	-2.23137	0.539345	-0	-0.256352	-0.492692	-4.03124	0.0129664	0	0	0	0	-0	0	0	0	0
1.66	86.9189	600.445	1.04151	0.523879	-0	-0.256782	-0.561407	-3.87826	-0.00672711	0	0	0	0	-0	0	0	0	0
1.67	84.3907	508.129	1.60885	0.508317	-0	-0.256447	-0.548352	-3.3017	-0.010454	0	0	0	0	-0	0	0	0	0
1.68	78.1938	417.672	0.0115192	0.492503	-0	-0.255095	-0.473735	-2.53046	-6.97885e-05	0	0	0	0	-0	0	0	0	0
1.69	69.5225	333.62	-1.89213	0.476753	-0	-0.252618	-0.407756	-1.95671	0.0110975	0	0	0	0	-0	0	0	0	0
1.7	60.4048	258.931	-1.5017	0.46189	-0	-0.249211	-0.437182	-1.87403	0.0108686	0	0	0	0	-0	0	0	0	0
1.71	52.6849	194.107	0.185045	0.450314	-0	-0.24574	-0.601066	-2.21451	-0.00211112	0	0	0	0	-0	0	0	0	0
1.72	44.8524	140.257	-0.0671084	0.448536	-0	-0.243908	-0.812516	-2.5408	0.00121569	0	0	0	0	-0	0	0	0	0
1.73	35.4427	98.9189	-1.23685	0.465433	-0	-0.244566	-0.87222	-2.43433	0.0304379	0	0	0	0	-0	0	0	0	0
1.74	25.5563	69.7056	-0.906661	0.496383	-0	-0.24403	-0.744379	-2.03032	0.0264084	0	0	0	0	-0	0	0	0	0
1.75	0	0	0	0	-0	0	0	0	0	0	0	0	0	-0	0	0	0	0
1.76	0	0	0	0	-0	0	0	0	0	0	0	0	0	-0	0	0	0	0
1.77	0	0	0	0	-0	0	0	0	0	0	0	0	0	-0	0	0	0	0
1.78	0	0	0	0	-0	0	0	0	0	0	0	0	0	-0	0	0	0	0
1.79	0	0	0	0	-0	0	0	0	0	-13.6962	81.1753	-5.02688	0.698799	-0	-0.305154	0.695273	-4.12079	0.255185
1.8	0	0	0	0	-0	0	0	0	0	-5.00258	184.663	-7.02966	0.772418	-0	-0.343817	0.0346948	-1.28071	0.0487534
1.81	0	0	0	0	-0	0	0	0	0	11.5611	369.2	-5.59377	0.781535	-0	-0.346873	-0.00226358	-0.0722865	0.00109522
1.82	0	0	0	0	-0	0	0	0	0	10.7988	593.242	1.93012	0.783143	-0	-0.347518	-0.004335	-0.238148	-0.000774816
1.83	0	0	0	0	-0	0	0	0	0	-20.6879	771.945	11.7674	0.782666	-0	-0.348431	0.00918004	-0.342542	-0.00522164
1.84	0	0	0	0	-0	0	0	0	0	-65.3549	871.554	13.9328	0.779851	-0	-0.350103	-0.012425	0.165696	0.00264885
1.85	0	0	0	0	-0	0	0	0	0	-99.4547	939.309	11.2116	0.773413	-0	-0.352224	-0.0755628	0.71366	0.00851822
1.86	0	0	0	0	-0	0	0	0	0	-114.401	1027.11	21.1745	0.763064	-0	-0.354049	-0.0664682	0.596764	0.0123027
1.87	0	0	0	0	-0	0	0	0	0	-113.622	1132.82	40.8438	0.750182	-0	-0.355338	0.0252074	-0.25132	-0.00906133
1.88	0	0	0	0	-0	0	0	0	0	-103.237	1225.8	49.0211	0.736532	-0	-0.356449	0.113146	-1.34346	-0.0537265
1.89	0	0	0	0	-0	0	0	0	0	-89.8391	1292.03	46.7132	0.723026	-0	-0.357651	0.154427	-2.22092	-0.0802966
1.9	0	0	0	0	-0	0	0	0	0	-77.2974	1337.38	51.6287	0.709784	-0	-0.358909	0.16171	-2.79787	-0.10801
1.91	0	0	0	0	-0	0	0	0	0	-64.5041	1365.91	62.7179	0.696647	-0	-0.360133	0.150889	-3.19515	-0.14671
1.92	0	0	0	0	-0	0	0	0	0	-51.6818	1372.8	66.287	0.683575	-0	-0.361309	0.129218	-3.43235	-0.165735
